<?xml version="1.0" encoding="UTF-8" standalone="no" ?>
<!DOCTYPE svg PUBLIC "-//W3C//DTD SVG 1.1//EN" "http://www.w3.org/Graphics/SVG/1.1/DTD/svg11.dtd">
<svg xmlns="http://www.w3.org/2000/svg" xmlns:xlink="http://www.w3.org/1999/xlink" version="1.1" width="295.7077343750001" height="172.82600000000002" xml:space="preserve">
<desc>Created with Fabric.js 1.6.0-rc.1</desc>
<defs></defs>
<g style="stroke: none; stroke-width: 1; stroke-dasharray: none; stroke-linecap: butt; stroke-linejoin: miter; stroke-miterlimit: 10; fill: none; fill-rule: nonzero; opacity: 1;" transform="translate(133.3800000000001 29.49000000000001) rotate(58.44) scale(0.28 0.28)" >
  <path d="M 204 56 C 100 56 25.6 139.2 25.6 241.6 c 0 103.2 82.4 187.2 186.4 187.2 l 0 0 l 0 0 l 0 0 l 0 0 l 0 0 l 0 0 c 96 0 186.4 -83.2 186.4 -186.4 C 398.4 140 308 56 212 56 M 228 340.8 c -5.6 32 -13.6 60.8 -19.2 66.4 c -5.6 -5.6 -13.6 -34.4 -19.2 -66.4 H 228 z M 183.2 228.8 c 0 -24 1.6 -40 3.2 -56 h 44 c 1.6 16 3.2 32 3.2 56 H 183.2 z M 252 148.8 c -2.4 -24 -6.4 -40.8 -12.8 -57.6 c 17.6 11.2 32 33.6 43.2 57.6 H 252 z M 177.6 91.2 c -5.6 16 -9.6 33.6 -12.8 57.6 h -30.4 C 145.6 124.8 160.8 102.4 177.6 91.2 z M 92.8 228.8 H 47.2 c 1.6 -24 4.8 -37.6 12.8 -56 l 0 0 h 40.8 C 96.8 188.8 93.6 212.8 92.8 228.8 z M 164 316.8 h -37.6 c -4.8 -24 -8 -40 -9.6 -64 H 156 M 255.2 316.8 c 2.4 -24 3.2 -48 3.2 -64 h 42.4 c -0.8 24 -4 40 -9.6 64 H 255.2 z M 324.8 228.8 c -0.8 -16 -4 -40 -8 -56 H 356 v -3.2 c 8 18.4 12.8 35.2 14.4 59.2 H 324.8 z M 77.6 340.8 H 108 c 7.2 16 15.2 35.2 25.6 48.8 C 112 378.4 92 356.8 77.6 340.8 z M 283.2 389.6 c 10.4 -13.6 19.2 -32.8 25.6 -48.8 H 340 C 325.6 356.8 305.6 378.4 283.2 389.6 z" style="stroke: none; stroke-width: 1; stroke-dasharray: none; stroke-linecap: butt; stroke-linejoin: miter; stroke-miterlimit: 10; fill: #1EA4C4; fill-rule: nonzero; opacity: 1;" transform=" matrix(1 0 0 1 0 0) " stroke-linecap="round" />
  <path d="M 218.4 473.6 c -6.4 0 -12 -5.6 -12 -12 s 5.6 -12 12 -12 c 113.6 0 207.2 -92.8 207.2 -207.2 S 332 35.2 218.4 35.2 c -6.4 0 -12 -5.6 -12 -12 s 5.6 -12 12 -12 c 127.2 0 231.2 104 231.2 231.2 C 449.6 369.6 345.6 473.6 218.4 473.6 z" style="stroke: none; stroke-width: 1; stroke-dasharray: none; stroke-linecap: butt; stroke-linejoin: miter; stroke-miterlimit: 10; fill: #0C4568; fill-rule: nonzero; opacity: 1;" transform=" matrix(1 0 0 1 0 0) " stroke-linecap="round" />
  <circle cx="208.8" cy="20.8" r="20.8" style="stroke: none; stroke-width: 1; stroke-dasharray: none; stroke-linecap: butt; stroke-linejoin: miter; stroke-miterlimit: 10; fill: #C92B00; fill-rule: nonzero; opacity: 1;" transform="  matrix(1 0 0 1 0 0) "/>
  <path d="M 208.8 0 c 12 0 20.8 9.6 20.8 20.8 c 0 12 -9.6 20.8 -20.8 20.8" style="stroke: none; stroke-width: 1; stroke-dasharray: none; stroke-linecap: butt; stroke-linejoin: miter; stroke-miterlimit: 10; fill: #960000; fill-rule: nonzero; opacity: 1;" transform=" matrix(1 0 0 1 0 0) " stroke-linecap="round" />
  <path d="M 209.6 428.8 c 100.8 0 188.8 -83.2 188.8 -186.4 C 398.4 140 308 56 212 56 h -8 l 0 0 l 0 0 l 0 0 l 0 0 c 0 0 8 0 0 0 v 116.8 h 27.2 c 1.6 16 3.2 32 3.2 56 H 204 v 112 h 24 c -5.6 32 -13.6 60.8 -19.2 66.4 l 0 0 v 19.2 l 0 0 M 240 91.2 c 17.6 11.2 32 33.6 43.2 57.6 H 252 C 249.6 124.8 245.6 108 240 91.2 z M 258.4 252.8 h 42.4 c -0.8 24 -4 40 -9.6 64 h -36 C 256.8 292.8 257.6 268.8 258.4 252.8 z M 283.2 389.6 c 10.4 -13.6 19.2 -32.8 25.6 -48.8 H 340 C 325.6 356.8 305.6 378.4 283.2 389.6 z M 324.8 228.8 c -0.8 -16 -4 -40 -8 -56 H 356 l 0 0 c 8 18.4 12.8 32 14.4 56 H 324.8 z" style="stroke: none; stroke-width: 1; stroke-dasharray: none; stroke-linecap: butt; stroke-linejoin: miter; stroke-miterlimit: 10; fill: #0777A8; fill-rule: nonzero; opacity: 1;" transform=" matrix(1 0 0 1 0 0) " stroke-linecap="round" />
  <path d="M 425.6 244.8 c -0.8 112 -93.6 205.6 -207.2 205.6 c -6.4 0 -12 4.8 -12 12 c 0 6.4 5.6 12.8 12 12.8 c 126.4 -0.8 230.4 -102.4 231.2 -230.4 H 425.6 z" style="stroke: none; stroke-width: 1; stroke-dasharray: none; stroke-linecap: butt; stroke-linejoin: miter; stroke-miterlimit: 10; fill: #03243D; fill-rule: nonzero; opacity: 1;" transform=" matrix(1 0 0 1 0 0) " stroke-linecap="round" />
</g>
<g style="stroke: none; stroke-width: 1; stroke-dasharray: none; stroke-linecap: butt; stroke-linejoin: miter; stroke-miterlimit: 10; fill: none; fill-rule: nonzero; opacity: 1;" transform="translate(10.000000000000007 10) scale(0.25 0.25)" >
  <rect x="360" y="47.6" rx="0" ry="0" width="80" height="152" style="stroke: none; stroke-width: 1; stroke-dasharray: none; stroke-linecap: butt; stroke-linejoin: miter; stroke-miterlimit: 10; fill: #680B09; fill-rule: nonzero; opacity: 1;" transform=" matrix(1 0 0 1 0 0) "/>
  <rect x="352" y="31.6" rx="0" ry="0" width="96" height="16" style="stroke: none; stroke-width: 1; stroke-dasharray: none; stroke-linecap: butt; stroke-linejoin: miter; stroke-miterlimit: 10; fill: #C43D27; fill-rule: nonzero; opacity: 1;" transform=" matrix(1 0 0 1 0 0) "/>
  <rect x="0" y="431.6" rx="0" ry="0" width="488" height="32" style="stroke: none; stroke-width: 1; stroke-dasharray: none; stroke-linecap: butt; stroke-linejoin: miter; stroke-miterlimit: 10; fill: #207700; fill-rule: nonzero; opacity: 1;" transform=" matrix(1 0 0 1 0 0) "/>
  <polygon points="56,362 72,354 88,362 88,448.4 72,456.4 56,448.4 " style="stroke: none; stroke-width: 1; stroke-dasharray: none; stroke-linecap: butt; stroke-linejoin: miter; stroke-miterlimit: 10; fill: #207700; fill-rule: nonzero; opacity: 1;" transform="  matrix(1 0 0 1 0 0) "/>
  <polygon points="0,362 16,354 32,362 32,448.4 16,456.4 0,448.4 " style="stroke: none; stroke-width: 1; stroke-dasharray: none; stroke-linecap: butt; stroke-linejoin: miter; stroke-miterlimit: 10; fill: #207700; fill-rule: nonzero; opacity: 1;" transform="  matrix(1 0 0 1 0 0) "/>
  <rect x="16" y="391.6" rx="0" ry="0" width="56" height="16" style="stroke: none; stroke-width: 1; stroke-dasharray: none; stroke-linecap: butt; stroke-linejoin: miter; stroke-miterlimit: 10; fill: #239B02; fill-rule: nonzero; opacity: 1;" transform=" matrix(1 0 0 1 0 0) "/>
  <rect x="112" y="223.6" rx="0" ry="0" width="328" height="224" style="stroke: none; stroke-width: 1; stroke-dasharray: none; stroke-linecap: butt; stroke-linejoin: miter; stroke-miterlimit: 10; fill: #FFFFFF; fill-rule: nonzero; opacity: 1;" transform=" matrix(1 0 0 1 0 0) "/>
  <polyline points="112,223.6 440,223.6 440,447.6 " style="stroke: none; stroke-width: 1; stroke-dasharray: none; stroke-linecap: butt; stroke-linejoin: miter; stroke-miterlimit: 10; fill: #E8F9FC; fill-rule: nonzero; opacity: 1;" transform="  matrix(1 0 0 1 0 0) "/>
  <path d="M 256 431.6 V 282 c 0 -7.2 -2.4 -10.4 -9.6 -10.4 H 172 c -7.2 0 -12 4 -12 10.4 v 149.6 H 256 z" style="stroke: none; stroke-width: 1; stroke-dasharray: none; stroke-linecap: butt; stroke-linejoin: miter; stroke-miterlimit: 10; fill: #FCA12A; fill-rule: nonzero; opacity: 1;" transform=" matrix(1 0 0 1 0 0) " stroke-linecap="round" />
  <path d="M 256 359.6 V 282 c 0 -7.2 -2.4 -10.4 -9.6 -10.4 H 172 c -7.2 0 -12 4 -12 10.4" style="stroke: none; stroke-width: 1; stroke-dasharray: none; stroke-linecap: butt; stroke-linejoin: miter; stroke-miterlimit: 10; fill: #E58613; fill-rule: nonzero; opacity: 1;" transform=" matrix(1 0 0 1 0 0) " stroke-linecap="round" />
  <path d="M 246.4 352.4 c 0 7.2 -5.6 13.6 -13.6 13.6 c -7.2 0 -13.6 -5.6 -13.6 -13.6 c 0 -7.2 5.6 -13.6 13.6 -13.6 C 240 338.8 246.4 344.4 246.4 352.4 z" style="stroke: none; stroke-width: 1; stroke-dasharray: none; stroke-linecap: butt; stroke-linejoin: miter; stroke-miterlimit: 10; fill: #DB5435; fill-rule: nonzero; opacity: 1;" transform=" matrix(1 0 0 1 0 0) " stroke-linecap="round" />
  <path d="M 242.4 342.8 c 5.6 4.8 4.8 13.6 0 19.2 s -13.6 4.8 -19.2 0" style="stroke: none; stroke-width: 1; stroke-dasharray: none; stroke-linecap: butt; stroke-linejoin: miter; stroke-miterlimit: 10; fill: #C43D27; fill-rule: nonzero; opacity: 1;" transform=" matrix(1 0 0 1 0 0) " stroke-linecap="round" />
  <path d="M 344 311.6 h 48 V 282 c 0 -7.2 -8 -10.4 -15.2 -10.4 H 344 V 311.6 z" style="stroke: none; stroke-width: 1; stroke-dasharray: none; stroke-linecap: butt; stroke-linejoin: miter; stroke-miterlimit: 10; fill: #0E75AF; fill-rule: nonzero; opacity: 1;" transform=" matrix(1 0 0 1 0 0) " stroke-linecap="round" />
  <path d="M 336 311.6 v -40 h -36 c -7.2 0 -12 4 -12 10.4 v 29.6 H 336 z" style="stroke: none; stroke-width: 1; stroke-dasharray: none; stroke-linecap: butt; stroke-linejoin: miter; stroke-miterlimit: 10; fill: #1EA4C4; fill-rule: nonzero; opacity: 1;" transform=" matrix(1 0 0 1 0 0) " stroke-linecap="round" />
  <path d="M 336 319.6 h -48 v 31.2 c 0 7.2 4.8 8.8 12 8.8 h 36 V 319.6 z" style="stroke: none; stroke-width: 1; stroke-dasharray: none; stroke-linecap: butt; stroke-linejoin: miter; stroke-miterlimit: 10; fill: #0E75AF; fill-rule: nonzero; opacity: 1;" transform=" matrix(1 0 0 1 0 0) " stroke-linecap="round" />
  <path d="M 344 319.6 v 40 h 32.8 c 7.2 0 15.2 -1.6 15.2 -8.8 v -31.2 H 344 z" style="stroke: none; stroke-width: 1; stroke-dasharray: none; stroke-linecap: butt; stroke-linejoin: miter; stroke-miterlimit: 10; fill: #1EA4C4; fill-rule: nonzero; opacity: 1;" transform=" matrix(1 0 0 1 0 0) " stroke-linecap="round" />
  <polygon points="495.2,223.6 276,52.4 57.6,223.6 " style="stroke: none; stroke-width: 1; stroke-dasharray: none; stroke-linecap: butt; stroke-linejoin: miter; stroke-miterlimit: 10; fill: #C43D27; fill-rule: nonzero; opacity: 1;" transform="  matrix(1 0 0 1 0 0) "/>
  <polygon points="495.2,223.6 276,52.4 164.8,223.6 " style="stroke: none; stroke-width: 1; stroke-dasharray: none; stroke-linecap: butt; stroke-linejoin: miter; stroke-miterlimit: 10; fill: #AA1E0F; fill-rule: nonzero; opacity: 1;" transform="  matrix(1 0 0 1 0 0) "/>
  <polygon points="119.2,175.6 433.6,175.6 413.6,159.6 139.2,159.6 " style="stroke: none; stroke-width: 1; stroke-dasharray: none; stroke-linecap: butt; stroke-linejoin: miter; stroke-miterlimit: 10; fill: #C43D27; fill-rule: nonzero; opacity: 1;" transform="  matrix(1 0 0 1 0 0) "/>
  <polygon points="190.4,119.6 362.4,119.6 352,111.6 200.8,111.6 " style="stroke: none; stroke-width: 1; stroke-dasharray: none; stroke-linecap: butt; stroke-linejoin: miter; stroke-miterlimit: 10; fill: #C43D27; fill-rule: nonzero; opacity: 1;" transform="  matrix(1 0 0 1 0 0) "/>
</g>
  <g transform="translate(188.09 35.86) rotate(329.14) scale(0.74 0.74)">
   <text font-family="Lobster 13" font-size="40" font-style="italic" font-weight="normal" style="stroke: none; stroke-width: 1; stroke-dasharray: none; stroke-linecap: butt; stroke-linejoin: miter; stroke-miterlimit: 10; fill: #cce0e0; fill-rule: nonzero; opacity: 1;" ><tspan x="-52.16" y="8.98" style="stroke: none; stroke-width: 0; stroke-dasharray: none; stroke-linecap: butt; stroke-linejoin: miter; stroke-miterlimit: 4; fill: #cce0e0; fill-rule: ; opacity: 1;">v</tspan><tspan x="-35.54" y="8.98" style="stroke: none; stroke-width: 0; stroke-dasharray: none; stroke-linecap: butt; stroke-linejoin: miter; stroke-miterlimit: 4; fill: #cce0e0; fill-rule: ; opacity: 1;">i</tspan><tspan x="-24.79" y="8.98" style="stroke: none; stroke-width: 0; stroke-dasharray: none; stroke-linecap: butt; stroke-linejoin: miter; stroke-miterlimit: 4; fill: #cce0e0; fill-rule: ; opacity: 1;">l</tspan><tspan x="-13.37" y="8.98" style="stroke: none; stroke-width: 0; stroke-dasharray: none; stroke-linecap: butt; stroke-linejoin: miter; stroke-miterlimit: 4; fill: #cce0e0; fill-rule: ; opacity: 1;">l</tspan><tspan x="-1.94" y="8.98" style="stroke: none; stroke-width: 0; stroke-dasharray: none; stroke-linecap: butt; stroke-linejoin: miter; stroke-miterlimit: 4; fill: #cce0e0; fill-rule: ; opacity: 1;">a</tspan><tspan x="18.17" y="8.98" style="stroke: none; stroke-width: 0; stroke-dasharray: none; stroke-linecap: butt; stroke-linejoin: miter; stroke-miterlimit: 4; fill: #cce0e0; fill-rule: ; opacity: 1;">g</tspan><tspan x="37.96" y="8.98" style="stroke: none; stroke-width: 0; stroke-dasharray: none; stroke-linecap: butt; stroke-linejoin: miter; stroke-miterlimit: 4; fill: #cce0e0; fill-rule: ; opacity: 1;">e</tspan></text>
 </g>
  <g transform="translate(158.11 13.7) rotate(330.09) scale(0.76 0.84)">
   <text font-family="Lobster 13" font-size="40" font-style="italic" font-weight="normal" style="stroke: none; stroke-width: 1; stroke-dasharray: none; stroke-linecap: butt; stroke-linejoin: miter; stroke-miterlimit: 10; fill: #5eed17; fill-rule: nonzero; opacity: 1;" ><tspan x="-46.74" y="8.98" style="stroke: none; stroke-width: 0; stroke-dasharray: none; stroke-linecap: butt; stroke-linejoin: miter; stroke-miterlimit: 4; fill: #5eed17; fill-rule: ; opacity: 1;">s</tspan><tspan x="-30.51" y="8.98" style="stroke: none; stroke-width: 0; stroke-dasharray: none; stroke-linecap: butt; stroke-linejoin: miter; stroke-miterlimit: 4; fill: #5eed17; fill-rule: ; opacity: 1;">m</tspan><tspan x="-0.76" y="8.98" style="stroke: none; stroke-width: 0; stroke-dasharray: none; stroke-linecap: butt; stroke-linejoin: miter; stroke-miterlimit: 4; fill: #5eed17; fill-rule: ; opacity: 1;">a</tspan><tspan x="19.36" y="8.98" style="stroke: none; stroke-width: 0; stroke-dasharray: none; stroke-linecap: butt; stroke-linejoin: miter; stroke-miterlimit: 4; fill: #5eed17; fill-rule: ; opacity: 1;">r</tspan><tspan x="35.06" y="8.98" style="stroke: none; stroke-width: 0; stroke-dasharray: none; stroke-linecap: butt; stroke-linejoin: miter; stroke-miterlimit: 4; fill: #5eed17; fill-rule: ; opacity: 1;">t</tspan></text>
 </g>
  <g transform="translate(228.05 47.71) rotate(329.03) scale(0.7 0.74)">
   <text font-family="Lobster 13" font-size="40" font-style="italic" font-weight="normal" style="stroke: none; stroke-width: 1; stroke-dasharray: none; stroke-linecap: butt; stroke-linejoin: miter; stroke-miterlimit: 10; fill: #c7dbdb; fill-rule: nonzero; opacity: 1;" ><tspan x="-75.3" y="8.98" style="stroke: none; stroke-width: 0; stroke-dasharray: none; stroke-linecap: butt; stroke-linejoin: miter; stroke-miterlimit: 4; fill: #c7dbdb; fill-rule: ; opacity: 1;">c</tspan><tspan x="-60.91" y="8.98" style="stroke: none; stroke-width: 0; stroke-dasharray: none; stroke-linecap: butt; stroke-linejoin: miter; stroke-miterlimit: 4; fill: #c7dbdb; fill-rule: ; opacity: 1;">o</tspan><tspan x="-44.19" y="8.98" style="stroke: none; stroke-width: 0; stroke-dasharray: none; stroke-linecap: butt; stroke-linejoin: miter; stroke-miterlimit: 4; fill: #c7dbdb; fill-rule: ; opacity: 1;">n</tspan><tspan x="-24.07" y="8.98" style="stroke: none; stroke-width: 0; stroke-dasharray: none; stroke-linecap: butt; stroke-linejoin: miter; stroke-miterlimit: 4; fill: #c7dbdb; fill-rule: ; opacity: 1;">t</tspan><tspan x="-12.39" y="8.98" style="stroke: none; stroke-width: 0; stroke-dasharray: none; stroke-linecap: butt; stroke-linejoin: miter; stroke-miterlimit: 4; fill: #c7dbdb; fill-rule: ; opacity: 1;">r</tspan><tspan x="3.31" y="8.98" style="stroke: none; stroke-width: 0; stroke-dasharray: none; stroke-linecap: butt; stroke-linejoin: miter; stroke-miterlimit: 4; fill: #c7dbdb; fill-rule: ; opacity: 1;">o</tspan><tspan x="20.03" y="8.98" style="stroke: none; stroke-width: 0; stroke-dasharray: none; stroke-linecap: butt; stroke-linejoin: miter; stroke-miterlimit: 4; fill: #c7dbdb; fill-rule: ; opacity: 1;">l</tspan><tspan x="31.46" y="8.98" style="stroke: none; stroke-width: 0; stroke-dasharray: none; stroke-linecap: butt; stroke-linejoin: miter; stroke-miterlimit: 4; fill: #c7dbdb; fill-rule: ; opacity: 1;">l</tspan><tspan x="42.88" y="8.98" style="stroke: none; stroke-width: 0; stroke-dasharray: none; stroke-linecap: butt; stroke-linejoin: miter; stroke-miterlimit: 4; fill: #c7dbdb; fill-rule: ; opacity: 1;">o</tspan><tspan x="59.6" y="8.98" style="stroke: none; stroke-width: 0; stroke-dasharray: none; stroke-linecap: butt; stroke-linejoin: miter; stroke-miterlimit: 4; fill: #c7dbdb; fill-rule: ; opacity: 1;">r</tspan></text>
 </g>
  <g transform="translate(249.1 71.46) rotate(328.93) scale(0.71 0.71)">
   <text font-family="Lobster 13" font-size="40" font-style="italic" font-weight="normal" style="stroke: none; stroke-width: 1; stroke-dasharray: none; stroke-linecap: butt; stroke-linejoin: miter; stroke-miterlimit: 10; fill: #ff7d19; fill-rule: nonzero; opacity: 1;" ><tspan x="-57.52" y="8.98" style="stroke: none; stroke-width: 0; stroke-dasharray: none; stroke-linecap: butt; stroke-linejoin: miter; stroke-miterlimit: 4; fill: #ff7d19; fill-rule: ; opacity: 1;">S</tspan><tspan x="-34.73" y="8.98" style="stroke: none; stroke-width: 0; stroke-dasharray: none; stroke-linecap: butt; stroke-linejoin: miter; stroke-miterlimit: 4; fill: #ff7d19; fill-rule: ; opacity: 1;">y</tspan><tspan x="-14.34" y="8.98" style="stroke: none; stroke-width: 0; stroke-dasharray: none; stroke-linecap: butt; stroke-linejoin: miter; stroke-miterlimit: 4; fill: #ff7d19; fill-rule: ; opacity: 1;">s</tspan><tspan x="1.89" y="8.98" style="stroke: none; stroke-width: 0; stroke-dasharray: none; stroke-linecap: butt; stroke-linejoin: miter; stroke-miterlimit: 4; fill: #ff7d19; fill-rule: ; opacity: 1;">t</tspan><tspan x="13.57" y="8.98" style="stroke: none; stroke-width: 0; stroke-dasharray: none; stroke-linecap: butt; stroke-linejoin: miter; stroke-miterlimit: 4; fill: #ff7d19; fill-rule: ; opacity: 1;">e</tspan><tspan x="27.77" y="8.98" style="stroke: none; stroke-width: 0; stroke-dasharray: none; stroke-linecap: butt; stroke-linejoin: miter; stroke-miterlimit: 4; fill: #ff7d19; fill-rule: ; opacity: 1;">m</tspan></text>
 </g>
</svg>