<?xml version="1.0" encoding="UTF-8" standalone="no" ?>
<!DOCTYPE svg PUBLIC "-//W3C//DTD SVG 1.1//EN" "http://www.w3.org/Graphics/SVG/1.1/DTD/svg11.dtd">
<svg xmlns="http://www.w3.org/2000/svg" xmlns:xlink="http://www.w3.org/1999/xlink" version="1.1" width="319.769921875" height="226.02463999999998" xml:space="preserve">
<desc>Created with Fabric.js 1.6.0-rc.1</desc>
<defs></defs>
<g style="stroke: none; stroke-width: 1; stroke-dasharray: none; stroke-linecap: butt; stroke-linejoin: miter; stroke-miterlimit: 10; fill: none; fill-rule: nonzero; opacity: 1;" transform="translate(76.75999999999999 39.52999999999997) scale(0.32 0.32)" >
  <path d="M 482.133 93.333 V 385.6 H 29.867 V 93.333 c 0 -12.8 9.6 -22.4 22.4 -22.4 h 407.467 C 472.533 70.933 482.133 80.533 482.133 93.333 z" style="stroke: none; stroke-width: 1; stroke-dasharray: none; stroke-linecap: butt; stroke-linejoin: miter; stroke-miterlimit: 10; fill: #415A6B; fill-rule: nonzero; opacity: 1;" transform=" matrix(1 0 0 1 0 0) " stroke-linecap="round" />
  <rect x="62.93" y="104" rx="0" ry="0" width="385.07" height="247.47" style="stroke: none; stroke-width: 1; stroke-dasharray: none; stroke-linecap: butt; stroke-linejoin: miter; stroke-miterlimit: 10; fill: #f5f9fa; fill-rule: nonzero; opacity: 1;" transform=" matrix(1 0 0 1 0 0) "/>
  <path d="M 0 385.6 C 0 415.467 24.533 440 54.4 440 h 402.133 c 29.867 0 54.4 -24.533 54.4 -54.4 H 0 z" style="stroke: none; stroke-width: 1; stroke-dasharray: none; stroke-linecap: butt; stroke-linejoin: miter; stroke-miterlimit: 10; fill: #0e0f0f; fill-rule: nonzero; opacity: 1;" transform=" matrix(1 0 0 1 0 0) " stroke-linecap="round" />
  <polygon points="309.33,409.07 202.67,409.07 192,385.6 320,385.6 " style="stroke: none; stroke-width: 1; stroke-dasharray: none; stroke-linecap: butt; stroke-linejoin: miter; stroke-miterlimit: 10; fill: #060b12; fill-rule: nonzero; opacity: 1;" transform="  matrix(1 0 0 1 0 0) "/>
  <polygon points="220.8,309.87 391.47,146.67 232.53,244.8 " style="stroke: none; stroke-width: 1; stroke-dasharray: none; stroke-linecap: butt; stroke-linejoin: miter; stroke-miterlimit: 10; fill: #0e0f0f; fill-rule: nonzero; opacity: 1;" transform="  matrix(1 0 0 1 0 0) "/>
  <polygon points="334.93,296 232.53,244.8 225.07,234.13 211.2,230.93 120.53,209.6 391.47,146.67 " style="stroke: none; stroke-width: 1; stroke-dasharray: none; stroke-linecap: butt; stroke-linejoin: miter; stroke-miterlimit: 10; fill: #FFFFFF; fill-rule: nonzero; opacity: 1;" transform="  matrix(1 0 0 1 0 0) "/>
  <polygon points="232.53,244.8 220.8,309.87 210.13,230.93 391.47,146.67 " style="stroke: none; stroke-width: 1; stroke-dasharray: none; stroke-linecap: butt; stroke-linejoin: miter; stroke-miterlimit: 10; fill: #F3F3F3; fill-rule: nonzero; opacity: 1;" transform="  matrix(1 0 0 1 0 0) "/>
</g>
<g style="stroke: none; stroke-width: 1; stroke-dasharray: none; stroke-linecap: butt; stroke-linejoin: miter; stroke-miterlimit: 10; fill: none; fill-rule: nonzero; opacity: 1;" transform="translate(197.36 76.02999999999997) scale(0.33 0.44) matrix(-1 0 0 1 69.75 0) " >
  <path d="M 0 6.283 c 0 0 30.096 2.932 32.55 14.6 C 35.004 32.55 24.173 57.5 24.173 57.5 s 7.061 -26.205 1.436 -35.899 C 19.985 11.908 0 6.283 0 6.283" style="stroke: none; stroke-width: 1; stroke-dasharray: none; stroke-linecap: butt; stroke-linejoin: miter; stroke-miterlimit: 10; fill: #00A2FF; fill-rule: nonzero; opacity: 1;" transform=" matrix(1 0 0 1 0 0) " stroke-linecap="round" />
  <path d="M 68.75 6.283 c 0 0 -30.095 2.932 -32.548 14.6 C 33.749 32.55 44.58 57.5 44.58 57.5 s -7.063 -26.205 -1.438 -35.899 C 48.767 11.908 68.75 6.283 68.75 6.283" style="stroke: none; stroke-width: 1; stroke-dasharray: none; stroke-linecap: butt; stroke-linejoin: miter; stroke-miterlimit: 10; fill: #FF9200; fill-rule: nonzero; opacity: 1;" transform=" matrix(1 0 0 1 0 0) " stroke-linecap="round" />
  <path d="M 40.818 6.404 c 0 3.536 -2.866 6.401 -6.402 6.401 c -3.533 0 -6.401 -2.865 -6.401 -6.401 S 30.883 0 34.416 0 C 37.952 0 40.818 2.868 40.818 6.404" style="stroke: none; stroke-width: 1; stroke-dasharray: none; stroke-linecap: butt; stroke-linejoin: miter; stroke-miterlimit: 10; fill: #FFC000; fill-rule: nonzero; opacity: 1;" transform=" matrix(1 0 0 1 0 0) " stroke-linecap="round" />
</g>
<g style="stroke: none; stroke-width: 1; stroke-dasharray: none; stroke-linecap: butt; stroke-linejoin: miter; stroke-miterlimit: 10; fill: none; fill-rule: nonzero; opacity: 1;" transform="translate(169.43999999999994 70.76999999999997) rotate(47.54) scale(0.15 0.15)" >
  <path d="M 204 56 C 100 56 25.6 139.2 25.6 241.6 c 0 103.2 82.4 187.2 186.4 187.2 l 0 0 l 0 0 l 0 0 l 0 0 l 0 0 l 0 0 c 96 0 186.4 -83.2 186.4 -186.4 C 398.4 140 308 56 212 56 M 228 340.8 c -5.6 32 -13.6 60.8 -19.2 66.4 c -5.6 -5.6 -13.6 -34.4 -19.2 -66.4 H 228 z M 183.2 228.8 c 0 -24 1.6 -40 3.2 -56 h 44 c 1.6 16 3.2 32 3.2 56 H 183.2 z M 252 148.8 c -2.4 -24 -6.4 -40.8 -12.8 -57.6 c 17.6 11.2 32 33.6 43.2 57.6 H 252 z M 177.6 91.2 c -5.6 16 -9.6 33.6 -12.8 57.6 h -30.4 C 145.6 124.8 160.8 102.4 177.6 91.2 z M 92.8 228.8 H 47.2 c 1.6 -24 4.8 -37.6 12.8 -56 l 0 0 h 40.8 C 96.8 188.8 93.6 212.8 92.8 228.8 z M 164 316.8 h -37.6 c -4.8 -24 -8 -40 -9.6 -64 H 156 M 255.2 316.8 c 2.4 -24 3.2 -48 3.2 -64 h 42.4 c -0.8 24 -4 40 -9.6 64 H 255.2 z M 324.8 228.8 c -0.8 -16 -4 -40 -8 -56 H 356 v -3.2 c 8 18.4 12.8 35.2 14.4 59.2 H 324.8 z M 77.6 340.8 H 108 c 7.2 16 15.2 35.2 25.6 48.8 C 112 378.4 92 356.8 77.6 340.8 z M 283.2 389.6 c 10.4 -13.6 19.2 -32.8 25.6 -48.8 H 340 C 325.6 356.8 305.6 378.4 283.2 389.6 z" style="stroke: none; stroke-width: 1; stroke-dasharray: none; stroke-linecap: butt; stroke-linejoin: miter; stroke-miterlimit: 10; fill: #f58229; fill-rule: nonzero; opacity: 1;" transform=" matrix(1 0 0 1 0 0) " stroke-linecap="round" />
  <path d="M 218.4 473.6 c -6.4 0 -12 -5.6 -12 -12 s 5.6 -12 12 -12 c 113.6 0 207.2 -92.8 207.2 -207.2 S 332 35.2 218.4 35.2 c -6.4 0 -12 -5.6 -12 -12 s 5.6 -12 12 -12 c 127.2 0 231.2 104 231.2 231.2 C 449.6 369.6 345.6 473.6 218.4 473.6 z" style="stroke: none; stroke-width: 1; stroke-dasharray: none; stroke-linecap: butt; stroke-linejoin: miter; stroke-miterlimit: 10; fill: #37ed3d; fill-rule: nonzero; opacity: 1;" transform=" matrix(1 0 0 1 0 0) " stroke-linecap="round" />
  <circle cx="208.8" cy="20.8" r="20.8" style="stroke: none; stroke-width: 1; stroke-dasharray: none; stroke-linecap: butt; stroke-linejoin: miter; stroke-miterlimit: 10; fill: #C92B00; fill-rule: nonzero; opacity: 1;" transform="  matrix(1 0 0 1 0 0) "/>
  <path d="M 208.8 0 c 12 0 20.8 9.6 20.8 20.8 c 0 12 -9.6 20.8 -20.8 20.8" style="stroke: none; stroke-width: 1; stroke-dasharray: none; stroke-linecap: butt; stroke-linejoin: miter; stroke-miterlimit: 10; fill: #960000; fill-rule: nonzero; opacity: 1;" transform=" matrix(1 0 0 1 0 0) " stroke-linecap="round" />
  <path d="M 209.6 428.8 c 100.8 0 188.8 -83.2 188.8 -186.4 C 398.4 140 308 56 212 56 h -8 l 0 0 l 0 0 l 0 0 l 0 0 c 0 0 8 0 0 0 v 116.8 h 27.2 c 1.6 16 3.2 32 3.2 56 H 204 v 112 h 24 c -5.6 32 -13.6 60.8 -19.2 66.4 l 0 0 v 19.2 l 0 0 M 240 91.2 c 17.6 11.2 32 33.6 43.2 57.6 H 252 C 249.6 124.8 245.6 108 240 91.2 z M 258.4 252.8 h 42.4 c -0.8 24 -4 40 -9.6 64 h -36 C 256.8 292.8 257.6 268.8 258.4 252.8 z M 283.2 389.6 c 10.4 -13.6 19.2 -32.8 25.6 -48.8 H 340 C 325.6 356.8 305.6 378.4 283.2 389.6 z M 324.8 228.8 c -0.8 -16 -4 -40 -8 -56 H 356 l 0 0 c 8 18.4 12.8 32 14.4 56 H 324.8 z" style="stroke: none; stroke-width: 1; stroke-dasharray: none; stroke-linecap: butt; stroke-linejoin: miter; stroke-miterlimit: 10; fill: #38c7eb; fill-rule: nonzero; opacity: 1;" transform=" matrix(1 0 0 1 0 0) " stroke-linecap="round" />
  <path d="M 425.6 244.8 c -0.8 112 -93.6 205.6 -207.2 205.6 c -6.4 0 -12 4.8 -12 12 c 0 6.4 5.6 12.8 12 12.8 c 126.4 -0.8 230.4 -102.4 231.2 -230.4 H 425.6 z" style="stroke: none; stroke-width: 1; stroke-dasharray: none; stroke-linecap: butt; stroke-linejoin: miter; stroke-miterlimit: 10; fill: #38eb1d; fill-rule: nonzero; opacity: 1;" transform=" matrix(1 0 0 1 0 0) " stroke-linecap="round" />
</g>
<g style="stroke: none; stroke-width: 1; stroke-dasharray: none; stroke-linecap: butt; stroke-linejoin: miter; stroke-miterlimit: 10; fill: none; fill-rule: nonzero; opacity: 1;" transform="translate(63.439999999999934 9.999999999999996) scale(0.87 0.87)" >
  <path d="m 126.22 59.802 c 0 0 -19.291 13.622 -27.086 57.638 c 0 0 7.559 -4.41 8.818 -4.41 c 0 0 2.668 -30.302 19.842 -48.503 l -1.574 -4.725 z" style="stroke: none; stroke-width: 1; stroke-dasharray: none; stroke-linecap: butt; stroke-linejoin: miter; stroke-miterlimit: 10; fill: #4fbd0b; fill-rule: nonzero; opacity: 1;" transform=" matrix(1.0000000173496655 0 0 1.0000000173496655 -90.15700156419379 -59.80200103754469) " stroke-linecap="round" />
  <path d="m 128.897 67.282 c 0 0 -2.599 2.835 -3.307 4.252 c 0 0 11.102 17.953 14.172 34.961 c 0.001 0 -3.542 -29.528 -10.865 -39.213 z" style="stroke: none; stroke-width: 1; stroke-dasharray: none; stroke-linecap: butt; stroke-linejoin: miter; stroke-miterlimit: 10; fill: #4fbd0b; fill-rule: nonzero; opacity: 1;" transform=" matrix(1.0000000173496655 0 0 1.0000000173496655 -90.15700156419379 -59.80200103754469) " stroke-linecap="round" />
  <path d="m 90.157 112.164 c 0 0 16.299 -23.15 69.686 -49.134 l -4.488 11.575 c -0.001 0 -46.3 17.716 -65.198 37.559 z" style="stroke: none; stroke-width: 1; stroke-dasharray: none; stroke-linecap: butt; stroke-linejoin: miter; stroke-miterlimit: 10; fill: #fab505; fill-rule: nonzero; opacity: 1;" transform=" matrix(1.0000000173496655 0 0 1.0000000173496655 -90.15700156419379 -59.80200103754469) " stroke-linecap="round" />
  <path d="m 146.378 84.526 l 2.141 -7.136 c 0 0 -44.896 18.947 -58.361 34.774 c -0.001 0 22.204 -17.717 56.22 -27.638 z" style="stroke: none; stroke-width: 1; stroke-dasharray: none; stroke-linecap: butt; stroke-linejoin: miter; stroke-miterlimit: 10; fill: #ebdc76; fill-rule: nonzero; opacity: 1;" transform=" matrix(1.0000000173496655 0 0 1.0000000173496655 -90.15700156419379 -59.80200103754469) " stroke-linecap="round" />
</g>
<g style="stroke: none; stroke-width: 1; stroke-dasharray: none; stroke-linecap: butt; stroke-linejoin: miter; stroke-miterlimit: 10; fill: none; fill-rule: nonzero; opacity: 1;" transform="translate(170.67999999999995 124.81) rotate(182.94) scale(0.11 0.11) matrix(-1 0 0 1 496.2 0)  matrix(1 0 0 -1 0 464.6)" >
  <rect x="360" y="47.6" rx="0" ry="0" width="80" height="152" style="stroke: none; stroke-width: 1; stroke-dasharray: none; stroke-linecap: butt; stroke-linejoin: miter; stroke-miterlimit: 10; fill: #680B09; fill-rule: nonzero; opacity: 1;" transform=" matrix(1 0 0 1 0 0) "/>
  <rect x="352" y="31.6" rx="0" ry="0" width="96" height="16" style="stroke: none; stroke-width: 1; stroke-dasharray: none; stroke-linecap: butt; stroke-linejoin: miter; stroke-miterlimit: 10; fill: #C43D27; fill-rule: nonzero; opacity: 1;" transform=" matrix(1 0 0 1 0 0) "/>
  <rect x="0" y="431.6" rx="0" ry="0" width="488" height="32" style="stroke: none; stroke-width: 1; stroke-dasharray: none; stroke-linecap: butt; stroke-linejoin: miter; stroke-miterlimit: 10; fill: #207700; fill-rule: nonzero; opacity: 1;" transform=" matrix(1 0 0 1 0 0) "/>
  <polygon points="56,362 72,354 88,362 88,448.4 72,456.4 56,448.4 " style="stroke: none; stroke-width: 1; stroke-dasharray: none; stroke-linecap: butt; stroke-linejoin: miter; stroke-miterlimit: 10; fill: #207700; fill-rule: nonzero; opacity: 1;" transform="  matrix(1 0 0 1 0 0) "/>
  <polygon points="0,362 16,354 32,362 32,448.4 16,456.4 0,448.4 " style="stroke: none; stroke-width: 1; stroke-dasharray: none; stroke-linecap: butt; stroke-linejoin: miter; stroke-miterlimit: 10; fill: #207700; fill-rule: nonzero; opacity: 1;" transform="  matrix(1 0 0 1 0 0) "/>
  <rect x="16" y="391.6" rx="0" ry="0" width="56" height="16" style="stroke: none; stroke-width: 1; stroke-dasharray: none; stroke-linecap: butt; stroke-linejoin: miter; stroke-miterlimit: 10; fill: #239B02; fill-rule: nonzero; opacity: 1;" transform=" matrix(1 0 0 1 0 0) "/>
  <rect x="112" y="223.6" rx="0" ry="0" width="328" height="224" style="stroke: none; stroke-width: 1; stroke-dasharray: none; stroke-linecap: butt; stroke-linejoin: miter; stroke-miterlimit: 10; fill: #FFFFFF; fill-rule: nonzero; opacity: 1;" transform=" matrix(1 0 0 1 0 0) "/>
  <polyline points="112,223.6 440,223.6 440,447.6 " style="stroke: none; stroke-width: 1; stroke-dasharray: none; stroke-linecap: butt; stroke-linejoin: miter; stroke-miterlimit: 10; fill: #E8F9FC; fill-rule: nonzero; opacity: 1;" transform="  matrix(1 0 0 1 0 0) "/>
  <path d="M 256 431.6 V 282 c 0 -7.2 -2.4 -10.4 -9.6 -10.4 H 172 c -7.2 0 -12 4 -12 10.4 v 149.6 H 256 z" style="stroke: none; stroke-width: 1; stroke-dasharray: none; stroke-linecap: butt; stroke-linejoin: miter; stroke-miterlimit: 10; fill: #FCA12A; fill-rule: nonzero; opacity: 1;" transform=" matrix(1 0 0 1 0 0) " stroke-linecap="round" />
  <path d="M 256 359.6 V 282 c 0 -7.2 -2.4 -10.4 -9.6 -10.4 H 172 c -7.2 0 -12 4 -12 10.4" style="stroke: none; stroke-width: 1; stroke-dasharray: none; stroke-linecap: butt; stroke-linejoin: miter; stroke-miterlimit: 10; fill: #E58613; fill-rule: nonzero; opacity: 1;" transform=" matrix(1 0 0 1 0 0) " stroke-linecap="round" />
  <path d="M 246.4 352.4 c 0 7.2 -5.6 13.6 -13.6 13.6 c -7.2 0 -13.6 -5.6 -13.6 -13.6 c 0 -7.2 5.6 -13.6 13.6 -13.6 C 240 338.8 246.4 344.4 246.4 352.4 z" style="stroke: none; stroke-width: 1; stroke-dasharray: none; stroke-linecap: butt; stroke-linejoin: miter; stroke-miterlimit: 10; fill: #DB5435; fill-rule: nonzero; opacity: 1;" transform=" matrix(1 0 0 1 0 0) " stroke-linecap="round" />
  <path d="M 242.4 342.8 c 5.6 4.8 4.8 13.6 0 19.2 s -13.6 4.8 -19.2 0" style="stroke: none; stroke-width: 1; stroke-dasharray: none; stroke-linecap: butt; stroke-linejoin: miter; stroke-miterlimit: 10; fill: #C43D27; fill-rule: nonzero; opacity: 1;" transform=" matrix(1 0 0 1 0 0) " stroke-linecap="round" />
  <path d="M 344 311.6 h 48 V 282 c 0 -7.2 -8 -10.4 -15.2 -10.4 H 344 V 311.6 z" style="stroke: none; stroke-width: 1; stroke-dasharray: none; stroke-linecap: butt; stroke-linejoin: miter; stroke-miterlimit: 10; fill: #0E75AF; fill-rule: nonzero; opacity: 1;" transform=" matrix(1 0 0 1 0 0) " stroke-linecap="round" />
  <path d="M 336 311.6 v -40 h -36 c -7.2 0 -12 4 -12 10.4 v 29.6 H 336 z" style="stroke: none; stroke-width: 1; stroke-dasharray: none; stroke-linecap: butt; stroke-linejoin: miter; stroke-miterlimit: 10; fill: #1EA4C4; fill-rule: nonzero; opacity: 1;" transform=" matrix(1 0 0 1 0 0) " stroke-linecap="round" />
  <path d="M 336 319.6 h -48 v 31.2 c 0 7.2 4.8 8.8 12 8.8 h 36 V 319.6 z" style="stroke: none; stroke-width: 1; stroke-dasharray: none; stroke-linecap: butt; stroke-linejoin: miter; stroke-miterlimit: 10; fill: #0E75AF; fill-rule: nonzero; opacity: 1;" transform=" matrix(1 0 0 1 0 0) " stroke-linecap="round" />
  <path d="M 344 319.6 v 40 h 32.8 c 7.2 0 15.2 -1.6 15.2 -8.8 v -31.2 H 344 z" style="stroke: none; stroke-width: 1; stroke-dasharray: none; stroke-linecap: butt; stroke-linejoin: miter; stroke-miterlimit: 10; fill: #1EA4C4; fill-rule: nonzero; opacity: 1;" transform=" matrix(1 0 0 1 0 0) " stroke-linecap="round" />
  <polygon points="495.2,223.6 276,52.4 57.6,223.6 " style="stroke: none; stroke-width: 1; stroke-dasharray: none; stroke-linecap: butt; stroke-linejoin: miter; stroke-miterlimit: 10; fill: #C43D27; fill-rule: nonzero; opacity: 1;" transform="  matrix(1 0 0 1 0 0) "/>
  <polygon points="495.2,223.6 276,52.4 164.8,223.6 " style="stroke: none; stroke-width: 1; stroke-dasharray: none; stroke-linecap: butt; stroke-linejoin: miter; stroke-miterlimit: 10; fill: #AA1E0F; fill-rule: nonzero; opacity: 1;" transform="  matrix(1 0 0 1 0 0) "/>
  <polygon points="119.2,175.6 433.6,175.6 413.6,159.6 139.2,159.6 " style="stroke: none; stroke-width: 1; stroke-dasharray: none; stroke-linecap: butt; stroke-linejoin: miter; stroke-miterlimit: 10; fill: #C43D27; fill-rule: nonzero; opacity: 1;" transform="  matrix(1 0 0 1 0 0) "/>
  <polygon points="190.4,119.6 362.4,119.6 352,111.6 200.8,111.6 " style="stroke: none; stroke-width: 1; stroke-dasharray: none; stroke-linecap: butt; stroke-linejoin: miter; stroke-miterlimit: 10; fill: #C43D27; fill-rule: nonzero; opacity: 1;" transform="  matrix(1 0 0 1 0 0) "/>
</g>
  <g transform="translate(173.71 41.23) scale(0.91 0.91)">
   <text font-family="undefined" font-size="40" font-weight="normal" style="stroke: none; stroke-width: 1; stroke-dasharray: none; stroke-linecap: butt; stroke-linejoin: miter; stroke-miterlimit: 10; fill: #5bd415; fill-rule: nonzero; opacity: 1;" ><tspan x="-67.79" y="8.98" style="stroke: none; stroke-width: 0; stroke-dasharray: none; stroke-linecap: butt; stroke-linejoin: miter; stroke-miterlimit: 4; fill: #5bd415; fill-rule: ; opacity: 1;">C</tspan><tspan x="-41.11" y="8.98" style="stroke: none; stroke-width: 0; stroke-dasharray: none; stroke-linecap: butt; stroke-linejoin: miter; stroke-miterlimit: 4; fill: #5bd415; fill-rule: ; opacity: 1;">A</tspan><tspan x="-12.23" y="8.98" style="stroke: none; stroke-width: 0; stroke-dasharray: none; stroke-linecap: butt; stroke-linejoin: miter; stroke-miterlimit: 4; fill: #5bd415; fill-rule: ; opacity: 1;">A</tspan><tspan x="16.66" y="8.98" style="stroke: none; stroke-width: 0; stroke-dasharray: none; stroke-linecap: butt; stroke-linejoin: miter; stroke-miterlimit: 4; fill: #5bd415; fill-rule: ; opacity: 1;">A</tspan><tspan x="45.55" y="8.98" style="stroke: none; stroke-width: 0; stroke-dasharray: none; stroke-linecap: butt; stroke-linejoin: miter; stroke-miterlimit: 4; fill: #5bd415; fill-rule: ; opacity: 1;">S</tspan></text>
 </g>
  <g transform="translate(37.95 202.34) scale(0.53 0.53)">
   <text font-family="undefined" font-size="40" font-weight="normal" style="stroke: none; stroke-width: 1; stroke-dasharray: none; stroke-linecap: butt; stroke-linejoin: miter; stroke-miterlimit: 10; fill: #fafafa; fill-rule: nonzero; opacity: 1;" ><tspan x="-52.23" y="8.98" style="stroke: none; stroke-width: 0; stroke-dasharray: none; stroke-linecap: butt; stroke-linejoin: miter; stroke-miterlimit: 4; fill: #fafafa; fill-rule: ; opacity: 1;">S</tspan><tspan x="-29.98" y="8.98" style="stroke: none; stroke-width: 0; stroke-dasharray: none; stroke-linecap: butt; stroke-linejoin: miter; stroke-miterlimit: 4; fill: #fafafa; fill-rule: ; opacity: 1;">T</tspan><tspan x="-5.55" y="8.98" style="stroke: none; stroke-width: 0; stroke-dasharray: none; stroke-linecap: butt; stroke-linejoin: miter; stroke-miterlimit: 4; fill: #fafafa; fill-rule: ; opacity: 1;">A</tspan><tspan x="23.34" y="8.98" style="stroke: none; stroke-width: 0; stroke-dasharray: none; stroke-linecap: butt; stroke-linejoin: miter; stroke-miterlimit: 4; fill: #fafafa; fill-rule: ; opacity: 1;">Y</tspan></text>
 </g>
  <g transform="translate(102.45 202.34) scale(0.52 0.52)">
   <text font-family="undefined" font-size="40" font-weight="normal" style="stroke: none; stroke-width: 1; stroke-dasharray: none; stroke-linecap: butt; stroke-linejoin: miter; stroke-miterlimit: 10; fill: #6adb0d; fill-rule: nonzero; opacity: 1;" ><tspan x="-68.91" y="8.98" style="stroke: none; stroke-width: 0; stroke-dasharray: none; stroke-linecap: butt; stroke-linejoin: miter; stroke-miterlimit: 4; fill: #6adb0d; fill-rule: ; opacity: 1;">S</tspan><tspan x="-46.66" y="8.98" style="stroke: none; stroke-width: 0; stroke-dasharray: none; stroke-linecap: butt; stroke-linejoin: miter; stroke-miterlimit: 4; fill: #6adb0d; fill-rule: ; opacity: 1;">M</tspan><tspan x="-11.09" y="8.98" style="stroke: none; stroke-width: 0; stroke-dasharray: none; stroke-linecap: butt; stroke-linejoin: miter; stroke-miterlimit: 4; fill: #6adb0d; fill-rule: ; opacity: 1;">A</tspan><tspan x="17.79" y="8.98" style="stroke: none; stroke-width: 0; stroke-dasharray: none; stroke-linecap: butt; stroke-linejoin: miter; stroke-miterlimit: 4; fill: #6adb0d; fill-rule: ; opacity: 1;">R</tspan><tspan x="44.47" y="8.98" style="stroke: none; stroke-width: 0; stroke-dasharray: none; stroke-linecap: butt; stroke-linejoin: miter; stroke-miterlimit: 4; fill: #6adb0d; fill-rule: ; opacity: 1;">T</tspan></text>
 </g>
  <g transform="translate(170.02 202.65) scale(0.52 0.52)">
   <text font-family="undefined" font-size="40" font-weight="normal" style="stroke: none; stroke-width: 1; stroke-dasharray: none; stroke-linecap: butt; stroke-linejoin: miter; stroke-miterlimit: 10; fill: #fafcff; fill-rule: nonzero; opacity: 1;" ><tspan x="-62.23" y="8.98" style="stroke: none; stroke-width: 0; stroke-dasharray: none; stroke-linecap: butt; stroke-linejoin: miter; stroke-miterlimit: 4; fill: #fafcff; fill-rule: ; opacity: 1;">,</tspan><tspan x="-52.23" y="8.98" style="stroke: none; stroke-width: 0; stroke-dasharray: none; stroke-linecap: butt; stroke-linejoin: miter; stroke-miterlimit: 4; fill: #fafcff; fill-rule: ; opacity: 1;"> </tspan><tspan x="-42.23" y="8.98" style="stroke: none; stroke-width: 0; stroke-dasharray: none; stroke-linecap: butt; stroke-linejoin: miter; stroke-miterlimit: 4; fill: #fafcff; fill-rule: ; opacity: 1;">S</tspan><tspan x="-19.98" y="8.98" style="stroke: none; stroke-width: 0; stroke-dasharray: none; stroke-linecap: butt; stroke-linejoin: miter; stroke-miterlimit: 4; fill: #fafcff; fill-rule: ; opacity: 1;">T</tspan><tspan x="4.45" y="8.98" style="stroke: none; stroke-width: 0; stroke-dasharray: none; stroke-linecap: butt; stroke-linejoin: miter; stroke-miterlimit: 4; fill: #fafcff; fill-rule: ; opacity: 1;">A</tspan><tspan x="33.34" y="8.98" style="stroke: none; stroke-width: 0; stroke-dasharray: none; stroke-linecap: butt; stroke-linejoin: miter; stroke-miterlimit: 4; fill: #fafcff; fill-rule: ; opacity: 1;">Y</tspan></text>
 </g>
  <g transform="translate(241.68 202.05) scale(0.54 0.54)">
   <text font-family="undefined" font-size="40" font-weight="normal" style="stroke: none; stroke-width: 1; stroke-dasharray: none; stroke-linecap: butt; stroke-linejoin: miter; stroke-miterlimit: 10; fill: #64d408; fill-rule: nonzero; opacity: 1;" ><tspan x="-65.58" y="8.98" style="stroke: none; stroke-width: 0; stroke-dasharray: none; stroke-linecap: butt; stroke-linejoin: miter; stroke-miterlimit: 4; fill: #64d408; fill-rule: ; opacity: 1;">H</tspan><tspan x="-36.69" y="8.98" style="stroke: none; stroke-width: 0; stroke-dasharray: none; stroke-linecap: butt; stroke-linejoin: miter; stroke-miterlimit: 4; fill: #64d408; fill-rule: ; opacity: 1;">A</tspan><tspan x="-7.8" y="8.98" style="stroke: none; stroke-width: 0; stroke-dasharray: none; stroke-linecap: butt; stroke-linejoin: miter; stroke-miterlimit: 4; fill: #64d408; fill-rule: ; opacity: 1;">P</tspan><tspan x="14.44" y="8.98" style="stroke: none; stroke-width: 0; stroke-dasharray: none; stroke-linecap: butt; stroke-linejoin: miter; stroke-miterlimit: 4; fill: #64d408; fill-rule: ; opacity: 1;">P</tspan><tspan x="36.69" y="8.98" style="stroke: none; stroke-width: 0; stroke-dasharray: none; stroke-linecap: butt; stroke-linejoin: miter; stroke-miterlimit: 4; fill: #64d408; fill-rule: ; opacity: 1;">Y</tspan></text>
 </g>
  <g transform="translate(294.77 201.71) scale(0.77 0.55)">
   <text font-family="undefined" font-size="40" font-weight="normal" style="stroke: none; stroke-width: 1; stroke-dasharray: none; stroke-linecap: butt; stroke-linejoin: miter; stroke-miterlimit: 10; fill: #fafafa; fill-rule: nonzero; opacity: 1;" ><tspan x="-19.98" y="8.98" style="stroke: none; stroke-width: 0; stroke-dasharray: none; stroke-linecap: butt; stroke-linejoin: miter; stroke-miterlimit: 4; fill: #fafafa; fill-rule: ; opacity: 1;">!</tspan><tspan x="-6.66" y="8.98" style="stroke: none; stroke-width: 0; stroke-dasharray: none; stroke-linecap: butt; stroke-linejoin: miter; stroke-miterlimit: 4; fill: #fafafa; fill-rule: ; opacity: 1;">!</tspan><tspan x="6.66" y="8.98" style="stroke: none; stroke-width: 0; stroke-dasharray: none; stroke-linecap: butt; stroke-linejoin: miter; stroke-miterlimit: 4; fill: #fafafa; fill-rule: ; opacity: 1;">!</tspan></text>
 </g>
</svg>